<mxfile host="app.diagrams.net" modified="2021-04-16T09:37:39.425Z" agent="5.0 (Macintosh; Intel Mac OS X 10_15_6) AppleWebKit/605.1.15 (KHTML, like Gecko) Version/14.0.3 Safari/605.1.15" etag="NXMxW8K_udM7rLtwPa_T" version="14.6.1" type="github">
  <diagram id="3228e29e-7158-1315-38df-8450db1d8a1d" name="Page-1">
    <mxGraphModel dx="830" dy="620" grid="1" gridSize="10" guides="1" tooltips="1" connect="1" arrows="1" fold="1" page="1" pageScale="1" pageWidth="1169" pageHeight="827" background="#ffffff" math="0" shadow="0">
      <root>
        <mxCell id="0" />
        <mxCell id="1" parent="0" />
        <mxCell id="NYHRDjAUSOSZJgKs4fI2-21706" value="" style="whiteSpace=wrap;html=1;aspect=fixed;strokeWidth=3;" vertex="1" parent="1">
          <mxGeometry x="275" y="210" width="500" height="500" as="geometry" />
        </mxCell>
        <mxCell id="NYHRDjAUSOSZJgKs4fI2-21664" style="edgeStyle=none;rounded=0;orthogonalLoop=1;jettySize=auto;html=1;exitX=1;exitY=0.5;exitDx=0;exitDy=0;entryX=0.5;entryY=0;entryDx=0;entryDy=0;" edge="1" parent="1" source="21643" target="NYHRDjAUSOSZJgKs4fI2-21660">
          <mxGeometry relative="1" as="geometry" />
        </mxCell>
        <mxCell id="NYHRDjAUSOSZJgKs4fI2-21687" value="0.1" style="edgeLabel;html=1;align=center;verticalAlign=middle;resizable=0;points=[];" vertex="1" connectable="0" parent="NYHRDjAUSOSZJgKs4fI2-21664">
          <mxGeometry x="-0.2369" y="-3" relative="1" as="geometry">
            <mxPoint as="offset" />
          </mxGeometry>
        </mxCell>
        <mxCell id="NYHRDjAUSOSZJgKs4fI2-21665" style="edgeStyle=none;rounded=0;orthogonalLoop=1;jettySize=auto;html=1;exitX=1;exitY=1;exitDx=0;exitDy=0;" edge="1" parent="1" source="21643" target="NYHRDjAUSOSZJgKs4fI2-21662">
          <mxGeometry relative="1" as="geometry" />
        </mxCell>
        <mxCell id="NYHRDjAUSOSZJgKs4fI2-21688" value="0.2" style="edgeLabel;html=1;align=center;verticalAlign=middle;resizable=0;points=[];" vertex="1" connectable="0" parent="NYHRDjAUSOSZJgKs4fI2-21665">
          <mxGeometry x="-0.5297" y="1" relative="1" as="geometry">
            <mxPoint as="offset" />
          </mxGeometry>
        </mxCell>
        <mxCell id="21643" value="&lt;font style=&quot;font-size: 14px&quot;&gt;x1=6,3&lt;/font&gt;" style="ellipse;whiteSpace=wrap;html=1;aspect=fixed;rounded=1;shadow=0;glass=0;labelBackgroundColor=none;strokeColor=#82b366;strokeWidth=3;fillColor=#d5e8d4;fontFamily=Helvetica;fontSize=16;align=center;opacity=50;spacing=15;" parent="1" vertex="1">
          <mxGeometry x="290" y="340" width="45" height="45" as="geometry" />
        </mxCell>
        <mxCell id="NYHRDjAUSOSZJgKs4fI2-21666" style="edgeStyle=none;rounded=0;orthogonalLoop=1;jettySize=auto;html=1;exitX=1;exitY=0.5;exitDx=0;exitDy=0;" edge="1" parent="1" source="NYHRDjAUSOSZJgKs4fI2-21652" target="NYHRDjAUSOSZJgKs4fI2-21660">
          <mxGeometry relative="1" as="geometry" />
        </mxCell>
        <mxCell id="NYHRDjAUSOSZJgKs4fI2-21689" value="0.3" style="edgeLabel;html=1;align=center;verticalAlign=middle;resizable=0;points=[];" vertex="1" connectable="0" parent="NYHRDjAUSOSZJgKs4fI2-21666">
          <mxGeometry x="-0.6556" y="2" relative="1" as="geometry">
            <mxPoint as="offset" />
          </mxGeometry>
        </mxCell>
        <mxCell id="NYHRDjAUSOSZJgKs4fI2-21667" style="edgeStyle=none;rounded=0;orthogonalLoop=1;jettySize=auto;html=1;exitX=1;exitY=1;exitDx=0;exitDy=0;" edge="1" parent="1" source="NYHRDjAUSOSZJgKs4fI2-21652" target="NYHRDjAUSOSZJgKs4fI2-21662">
          <mxGeometry relative="1" as="geometry" />
        </mxCell>
        <mxCell id="NYHRDjAUSOSZJgKs4fI2-21690" value="0.4" style="edgeLabel;html=1;align=center;verticalAlign=middle;resizable=0;points=[];" vertex="1" connectable="0" parent="NYHRDjAUSOSZJgKs4fI2-21667">
          <mxGeometry x="-0.5233" relative="1" as="geometry">
            <mxPoint as="offset" />
          </mxGeometry>
        </mxCell>
        <mxCell id="NYHRDjAUSOSZJgKs4fI2-21652" value="&lt;font style=&quot;font-size: 14px&quot;&gt;x2=3,3&lt;/font&gt;" style="ellipse;whiteSpace=wrap;html=1;aspect=fixed;rounded=1;shadow=0;glass=0;labelBackgroundColor=none;strokeColor=#82b366;strokeWidth=3;fillColor=#d5e8d4;fontFamily=Helvetica;fontSize=16;align=center;opacity=50;spacing=15;" vertex="1" parent="1">
          <mxGeometry x="290" y="414" width="45" height="45" as="geometry" />
        </mxCell>
        <mxCell id="NYHRDjAUSOSZJgKs4fI2-21668" style="edgeStyle=none;rounded=0;orthogonalLoop=1;jettySize=auto;html=1;exitX=1;exitY=0.5;exitDx=0;exitDy=0;entryX=0;entryY=0.5;entryDx=0;entryDy=0;" edge="1" parent="1" source="NYHRDjAUSOSZJgKs4fI2-21656" target="NYHRDjAUSOSZJgKs4fI2-21662">
          <mxGeometry relative="1" as="geometry" />
        </mxCell>
        <mxCell id="NYHRDjAUSOSZJgKs4fI2-21692" value="0.6" style="edgeLabel;html=1;align=center;verticalAlign=middle;resizable=0;points=[];" vertex="1" connectable="0" parent="NYHRDjAUSOSZJgKs4fI2-21668">
          <mxGeometry x="-0.5313" y="1" relative="1" as="geometry">
            <mxPoint as="offset" />
          </mxGeometry>
        </mxCell>
        <mxCell id="NYHRDjAUSOSZJgKs4fI2-21669" style="edgeStyle=none;rounded=0;orthogonalLoop=1;jettySize=auto;html=1;exitX=1;exitY=0;exitDx=0;exitDy=0;entryX=0;entryY=1;entryDx=0;entryDy=0;" edge="1" parent="1" source="NYHRDjAUSOSZJgKs4fI2-21656" target="NYHRDjAUSOSZJgKs4fI2-21660">
          <mxGeometry relative="1" as="geometry" />
        </mxCell>
        <mxCell id="NYHRDjAUSOSZJgKs4fI2-21691" value="0.5" style="edgeLabel;html=1;align=center;verticalAlign=middle;resizable=0;points=[];" vertex="1" connectable="0" parent="NYHRDjAUSOSZJgKs4fI2-21669">
          <mxGeometry x="-0.5028" relative="1" as="geometry">
            <mxPoint as="offset" />
          </mxGeometry>
        </mxCell>
        <mxCell id="NYHRDjAUSOSZJgKs4fI2-21656" value="&lt;font style=&quot;font-size: 14px&quot;&gt;x3=6,0&lt;/font&gt;" style="ellipse;whiteSpace=wrap;html=1;aspect=fixed;rounded=1;shadow=0;glass=0;labelBackgroundColor=none;strokeColor=#82b366;strokeWidth=3;fillColor=#d5e8d4;fontFamily=Helvetica;fontSize=16;align=center;opacity=50;spacing=15;" vertex="1" parent="1">
          <mxGeometry x="290" y="490" width="45" height="45" as="geometry" />
        </mxCell>
        <mxCell id="NYHRDjAUSOSZJgKs4fI2-21671" style="edgeStyle=none;rounded=0;orthogonalLoop=1;jettySize=auto;html=1;exitX=1;exitY=0.5;exitDx=0;exitDy=0;entryX=0;entryY=1;entryDx=0;entryDy=0;" edge="1" parent="1" source="NYHRDjAUSOSZJgKs4fI2-21658" target="NYHRDjAUSOSZJgKs4fI2-21662">
          <mxGeometry relative="1" as="geometry" />
        </mxCell>
        <mxCell id="NYHRDjAUSOSZJgKs4fI2-21694" value="0.8" style="edgeLabel;html=1;align=center;verticalAlign=middle;resizable=0;points=[];" vertex="1" connectable="0" parent="NYHRDjAUSOSZJgKs4fI2-21671">
          <mxGeometry x="-0.1139" y="-2" relative="1" as="geometry">
            <mxPoint as="offset" />
          </mxGeometry>
        </mxCell>
        <mxCell id="NYHRDjAUSOSZJgKs4fI2-21672" style="edgeStyle=none;rounded=0;orthogonalLoop=1;jettySize=auto;html=1;exitX=1;exitY=0;exitDx=0;exitDy=0;entryX=0.5;entryY=1;entryDx=0;entryDy=0;" edge="1" parent="1" source="NYHRDjAUSOSZJgKs4fI2-21658" target="NYHRDjAUSOSZJgKs4fI2-21660">
          <mxGeometry relative="1" as="geometry" />
        </mxCell>
        <mxCell id="NYHRDjAUSOSZJgKs4fI2-21693" value="0.7" style="edgeLabel;html=1;align=center;verticalAlign=middle;resizable=0;points=[];" vertex="1" connectable="0" parent="NYHRDjAUSOSZJgKs4fI2-21672">
          <mxGeometry x="-0.5296" y="-4" relative="1" as="geometry">
            <mxPoint as="offset" />
          </mxGeometry>
        </mxCell>
        <mxCell id="NYHRDjAUSOSZJgKs4fI2-21658" value="&lt;font style=&quot;font-size: 14px&quot;&gt;x4=2,5&lt;/font&gt;" style="ellipse;whiteSpace=wrap;html=1;aspect=fixed;rounded=1;shadow=0;glass=0;labelBackgroundColor=none;strokeColor=#82b366;strokeWidth=3;fillColor=#d5e8d4;fontFamily=Helvetica;fontSize=16;align=center;opacity=50;spacing=15;" vertex="1" parent="1">
          <mxGeometry x="290" y="560" width="45" height="45" as="geometry" />
        </mxCell>
        <mxCell id="NYHRDjAUSOSZJgKs4fI2-21674" value="" style="edgeStyle=none;rounded=0;orthogonalLoop=1;jettySize=auto;html=1;" edge="1" parent="1" source="NYHRDjAUSOSZJgKs4fI2-21660" target="NYHRDjAUSOSZJgKs4fI2-21673">
          <mxGeometry relative="1" as="geometry" />
        </mxCell>
        <mxCell id="NYHRDjAUSOSZJgKs4fI2-21675" value="" style="edgeStyle=none;rounded=0;orthogonalLoop=1;jettySize=auto;html=1;" edge="1" parent="1" source="NYHRDjAUSOSZJgKs4fI2-21660" target="NYHRDjAUSOSZJgKs4fI2-21673">
          <mxGeometry relative="1" as="geometry" />
        </mxCell>
        <mxCell id="NYHRDjAUSOSZJgKs4fI2-21676" value="" style="edgeStyle=none;rounded=0;orthogonalLoop=1;jettySize=auto;html=1;" edge="1" parent="1" source="NYHRDjAUSOSZJgKs4fI2-21660" target="NYHRDjAUSOSZJgKs4fI2-21673">
          <mxGeometry relative="1" as="geometry" />
        </mxCell>
        <mxCell id="NYHRDjAUSOSZJgKs4fI2-21695" value="0.3" style="edgeLabel;html=1;align=center;verticalAlign=middle;resizable=0;points=[];" vertex="1" connectable="0" parent="NYHRDjAUSOSZJgKs4fI2-21676">
          <mxGeometry x="-0.1863" y="-1" relative="1" as="geometry">
            <mxPoint as="offset" />
          </mxGeometry>
        </mxCell>
        <mxCell id="NYHRDjAUSOSZJgKs4fI2-21682" style="edgeStyle=none;rounded=0;orthogonalLoop=1;jettySize=auto;html=1;exitX=1;exitY=0.5;exitDx=0;exitDy=0;" edge="1" parent="1" source="NYHRDjAUSOSZJgKs4fI2-21660" target="NYHRDjAUSOSZJgKs4fI2-21680">
          <mxGeometry relative="1" as="geometry" />
        </mxCell>
        <mxCell id="NYHRDjAUSOSZJgKs4fI2-21696" value="0.5" style="edgeLabel;html=1;align=center;verticalAlign=middle;resizable=0;points=[];" vertex="1" connectable="0" parent="NYHRDjAUSOSZJgKs4fI2-21682">
          <mxGeometry x="-0.2785" relative="1" as="geometry">
            <mxPoint as="offset" />
          </mxGeometry>
        </mxCell>
        <mxCell id="NYHRDjAUSOSZJgKs4fI2-21683" style="edgeStyle=none;rounded=0;orthogonalLoop=1;jettySize=auto;html=1;exitX=1;exitY=1;exitDx=0;exitDy=0;entryX=0;entryY=0;entryDx=0;entryDy=0;" edge="1" parent="1" source="NYHRDjAUSOSZJgKs4fI2-21660" target="NYHRDjAUSOSZJgKs4fI2-21677">
          <mxGeometry relative="1" as="geometry" />
        </mxCell>
        <mxCell id="NYHRDjAUSOSZJgKs4fI2-21697" value="0.7" style="edgeLabel;html=1;align=center;verticalAlign=middle;resizable=0;points=[];" vertex="1" connectable="0" parent="NYHRDjAUSOSZJgKs4fI2-21683">
          <mxGeometry x="-0.0854" relative="1" as="geometry">
            <mxPoint x="-4" y="-5" as="offset" />
          </mxGeometry>
        </mxCell>
        <mxCell id="NYHRDjAUSOSZJgKs4fI2-21702" value="" style="edgeStyle=none;rounded=0;orthogonalLoop=1;jettySize=auto;html=1;" edge="1" parent="1" source="NYHRDjAUSOSZJgKs4fI2-21660" target="NYHRDjAUSOSZJgKs4fI2-21701">
          <mxGeometry relative="1" as="geometry" />
        </mxCell>
        <mxCell id="NYHRDjAUSOSZJgKs4fI2-21660" value="&lt;font style=&quot;font-size: 14px&quot;&gt;n1=6,87&lt;/font&gt;" style="ellipse;whiteSpace=wrap;html=1;aspect=fixed;rounded=1;shadow=0;glass=0;labelBackgroundColor=none;strokeColor=#9673a6;strokeWidth=3;fillColor=#e1d5e7;fontFamily=Helvetica;fontSize=16;align=center;opacity=50;spacing=15;" vertex="1" parent="1">
          <mxGeometry x="480" y="414" width="50" height="50" as="geometry" />
        </mxCell>
        <mxCell id="NYHRDjAUSOSZJgKs4fI2-21684" style="edgeStyle=none;rounded=0;orthogonalLoop=1;jettySize=auto;html=1;exitX=1;exitY=1;exitDx=0;exitDy=0;entryX=0;entryY=0.5;entryDx=0;entryDy=0;" edge="1" parent="1" source="NYHRDjAUSOSZJgKs4fI2-21662" target="NYHRDjAUSOSZJgKs4fI2-21677">
          <mxGeometry relative="1" as="geometry" />
        </mxCell>
        <mxCell id="NYHRDjAUSOSZJgKs4fI2-21700" value="0.6" style="edgeLabel;html=1;align=center;verticalAlign=middle;resizable=0;points=[];" vertex="1" connectable="0" parent="NYHRDjAUSOSZJgKs4fI2-21684">
          <mxGeometry x="-0.0918" y="-2" relative="1" as="geometry">
            <mxPoint as="offset" />
          </mxGeometry>
        </mxCell>
        <mxCell id="NYHRDjAUSOSZJgKs4fI2-21685" style="edgeStyle=none;rounded=0;orthogonalLoop=1;jettySize=auto;html=1;exitX=1;exitY=0.5;exitDx=0;exitDy=0;entryX=0;entryY=1;entryDx=0;entryDy=0;" edge="1" parent="1" source="NYHRDjAUSOSZJgKs4fI2-21662" target="NYHRDjAUSOSZJgKs4fI2-21680">
          <mxGeometry relative="1" as="geometry" />
        </mxCell>
        <mxCell id="NYHRDjAUSOSZJgKs4fI2-21699" value="0.4" style="edgeLabel;html=1;align=center;verticalAlign=middle;resizable=0;points=[];" vertex="1" connectable="0" parent="NYHRDjAUSOSZJgKs4fI2-21685">
          <mxGeometry x="-0.3668" y="-2" relative="1" as="geometry">
            <mxPoint as="offset" />
          </mxGeometry>
        </mxCell>
        <mxCell id="NYHRDjAUSOSZJgKs4fI2-21686" style="edgeStyle=none;rounded=0;orthogonalLoop=1;jettySize=auto;html=1;exitX=1;exitY=0;exitDx=0;exitDy=0;entryX=0;entryY=1;entryDx=0;entryDy=0;" edge="1" parent="1" source="NYHRDjAUSOSZJgKs4fI2-21662" target="NYHRDjAUSOSZJgKs4fI2-21673">
          <mxGeometry relative="1" as="geometry" />
        </mxCell>
        <mxCell id="NYHRDjAUSOSZJgKs4fI2-21698" value="0.2" style="edgeLabel;html=1;align=center;verticalAlign=middle;resizable=0;points=[];" vertex="1" connectable="0" parent="NYHRDjAUSOSZJgKs4fI2-21686">
          <mxGeometry x="-0.1512" y="-2" relative="1" as="geometry">
            <mxPoint as="offset" />
          </mxGeometry>
        </mxCell>
        <mxCell id="NYHRDjAUSOSZJgKs4fI2-21704" value="" style="edgeStyle=none;rounded=0;orthogonalLoop=1;jettySize=auto;html=1;" edge="1" parent="1" source="NYHRDjAUSOSZJgKs4fI2-21662" target="NYHRDjAUSOSZJgKs4fI2-21703">
          <mxGeometry relative="1" as="geometry" />
        </mxCell>
        <mxCell id="NYHRDjAUSOSZJgKs4fI2-21662" value="&lt;font style=&quot;font-size: 14px&quot;&gt;n2=8,98&lt;/font&gt;" style="ellipse;whiteSpace=wrap;html=1;aspect=fixed;rounded=1;shadow=0;glass=0;labelBackgroundColor=none;strokeColor=#9673a6;strokeWidth=3;fillColor=#e1d5e7;fontFamily=Helvetica;fontSize=16;align=center;opacity=50;spacing=15;" vertex="1" parent="1">
          <mxGeometry x="480" y="490" width="50" height="50" as="geometry" />
        </mxCell>
        <mxCell id="NYHRDjAUSOSZJgKs4fI2-21673" value="y1=0" style="ellipse;whiteSpace=wrap;html=1;aspect=fixed;rounded=1;shadow=0;glass=0;labelBackgroundColor=none;strokeColor=#6c8ebf;strokeWidth=3;fillColor=#dae8fc;fontFamily=Helvetica;fontSize=16;align=center;opacity=50;spacing=15;" vertex="1" parent="1">
          <mxGeometry x="660" y="370" width="50" height="50" as="geometry" />
        </mxCell>
        <mxCell id="NYHRDjAUSOSZJgKs4fI2-21677" value="y3=1" style="ellipse;whiteSpace=wrap;html=1;aspect=fixed;rounded=1;shadow=0;glass=0;labelBackgroundColor=none;strokeColor=#6c8ebf;strokeWidth=3;fillColor=#dae8fc;fontFamily=Helvetica;fontSize=16;align=center;opacity=50;spacing=15;" vertex="1" parent="1">
          <mxGeometry x="660" y="510" width="50" height="50" as="geometry" />
        </mxCell>
        <mxCell id="NYHRDjAUSOSZJgKs4fI2-21680" value="y2=0" style="ellipse;whiteSpace=wrap;html=1;aspect=fixed;rounded=1;shadow=0;glass=0;labelBackgroundColor=none;strokeColor=#6c8ebf;strokeWidth=3;fillColor=#dae8fc;fontFamily=Helvetica;fontSize=16;align=center;opacity=50;spacing=15;" vertex="1" parent="1">
          <mxGeometry x="660" y="440" width="50" height="50" as="geometry" />
        </mxCell>
        <mxCell id="NYHRDjAUSOSZJgKs4fI2-21701" value="b1 = 0.5" style="whiteSpace=wrap;html=1;rounded=1;shadow=0;fontSize=16;strokeColor=#9673a6;strokeWidth=3;fillColor=#e1d5e7;glass=0;opacity=50;spacing=15;" vertex="1" parent="1">
          <mxGeometry x="457" y="340" width="95" height="29" as="geometry" />
        </mxCell>
        <mxCell id="NYHRDjAUSOSZJgKs4fI2-21703" value="b2 = 0.8" style="whiteSpace=wrap;html=1;rounded=1;shadow=0;fontSize=16;strokeColor=#9673a6;strokeWidth=3;fillColor=#e1d5e7;glass=0;opacity=50;spacing=15;" vertex="1" parent="1">
          <mxGeometry x="462" y="580" width="91" height="25" as="geometry" />
        </mxCell>
        <mxCell id="NYHRDjAUSOSZJgKs4fI2-21705" value="Ce réseau doit répondre la classe y3 (d&#39;après ce qui a été défini dans le point4 spécification)" style="text;html=1;align=center;verticalAlign=middle;resizable=0;points=[];autosize=1;strokeColor=none;" vertex="1" parent="1">
          <mxGeometry x="270" y="260" width="510" height="20" as="geometry" />
        </mxCell>
      </root>
    </mxGraphModel>
  </diagram>
</mxfile>
